Coordinates
version=1
nRows=12
nColumns=23
inDegrees=yes

Units are S.I. units (second, meters, Newtons, ...)
If the header above contains a line with 'inDegrees', this indicates whether rotational values are in degrees (yes) or radians (no).

endheader
time	pelvis_tilt	pelvis_list	pelvis_rotation	pelvis_tx	pelvis_ty	pelvis_tz	hip_flexion_r	hip_adduction_r	hip_rotation_r	knee_angle_r	knee_angle_r_beta	ankle_angle_r	subtalar_angle_r	mtp_angle_r	hip_flexion_l	hip_adduction_l	hip_rotation_l	knee_angle_l	knee_angle_l_beta	ankle_angle_l	subtalar_angle_l	mtp_angle_l
      0.00000000	    -10.30580009	      2.29829657	     -1.82607851	      2.23755195	      0.92776283	      1.03205949	     -4.55883112	      0.55361190	     -2.16487675	     14.09115038	      0.24593697	     -2.47014469	     -4.83509582	      0.00000000	     39.04556243	      2.24428743	     -0.55159749	     75.80109713	      1.32297872	      3.41102362	    -11.46066483	      0.00000000
      0.00666667	    -11.11027264	      2.27077721	     -1.61411157	      2.23915739	      0.93145614	      1.03129823	     -4.87607024	      0.44403674	     -2.83921340	     13.58132848	      0.23703890	     -4.22736233	     -4.45903964	      0.00000000	     40.08045391	      2.24045464	     -0.90497997	     71.96401958	      1.25600908	      3.83082842	    -11.83560997	      0.00000000
      0.01333333	    -11.10603297	      2.39155582	     -1.23868584	      2.24100577	      0.93608813	      1.03019274	     -6.38470988	      0.22548225	     -3.51775293	     12.47351293	      0.21770387	     -6.48419182	     -4.54460584	      0.00000000	     39.89426173	      2.82302819	     -0.79703827	     67.59745375	      1.17979813	      3.38282359	    -13.75129413	      0.00000000
      0.02000000	    -11.84570911	      2.36961862	     -1.06647137	      2.24257536	      0.93938763	      1.02950122	     -6.69008552	      0.13470504	     -4.16798786	     12.17507048	      0.21249507	     -8.03408161	     -4.39578455	      0.00000000	     40.45503695	      2.89209468	     -1.06704941	     63.33336156	      1.10537569	      3.89828153	    -13.84798761	      0.00000000
      0.02666667	    -11.68676712	      2.52141446	     -0.83773559	      2.24441620	      0.94349596	      1.02868386	     -8.11589901	     -0.10330866	     -4.81711206	     11.64635719	      0.20326728	     -9.67078671	     -4.83398517	      0.00000000	     39.73861168	      3.32888212	     -1.15587745	     58.62910352	      1.02327089	      3.59818055	    -15.09247599	      0.00000000
      0.03333333	    -12.10264761	      2.46663238	     -0.67223220	      2.24592907	      0.94636623	      1.02803957	     -8.55026598	     -0.14931965	     -5.52806204	     11.91591104	      0.20797188	    -10.80941012	     -5.20881745	      0.00000000	     39.64910840	      3.39958740	     -1.36365242	     54.08477049	      0.94395732	      3.89497711	    -14.94932181	      0.00000000
      0.04000000	    -12.14898058	      2.41372179	     -0.57105993	      2.24746233	      0.94926782	      1.02741204	     -9.30252444	     -0.20187330	     -6.17154155	     12.40391988	      0.21648924	    -11.55959312	     -5.84852054	      0.00000000	     38.99840099	      3.48936016	     -1.53247501	     49.37594970	      0.86177289	      3.94093674	    -15.06861693	      0.00000000
      0.04666667	    -12.34031967	      2.25022376	     -0.47273294	      2.24879512	      0.95141151	      1.02679075	     -9.60863260	     -0.18799369	     -6.95533930	     13.55737438	      0.23662082	    -11.99953126	     -6.60966267	      0.00000000	     38.49397761	      3.40876474	     -1.80023842	     44.77986304	      0.78155605	      4.22683474	    -14.26707098	      0.00000000
      0.05333333	    -12.36650339	      2.10977803	     -0.43136967	      2.25011920	      0.95324868	      1.02621595	     -9.93947389	     -0.23861789	     -7.70692895	     15.10373353	      0.26360988	    -12.09327971	     -7.42833475	      0.00000000	     37.72201963	      3.32446231	     -2.15445366	     40.17233006	      0.70113943	      4.45674044	    -13.20819137	      0.00000000
      0.06000000	    -12.43098080	      1.89122667	     -0.30901593	      2.25136312	      0.95448105	      1.02542890	    -10.10122966	     -0.23529591	     -8.52054765	     16.98878500	      0.29651023	    -12.02691934	     -8.46016460	      0.00000000	     36.96882304	      3.25259172	     -2.39435184	     35.67784380	      0.62269584	      4.78047869	    -11.70700924	      0.00000000
      0.06666667	    -12.24057166	      1.73250547	     -0.38391690	      2.25252913	      0.95547684	      1.02480341	    -10.28629395	     -0.40413446	     -9.18873393	     19.42478472	      0.33902645	    -11.71604945	     -9.32983512	      0.00000000	     35.88537342	      3.13061759	     -2.86117501	     31.28775434	      0.54607433	      5.07903511	     -9.93412387	      0.00000000
      0.07333333	    -12.10050310	      1.50245170	     -0.34328794	      2.25363976	      0.95580900	      1.02392543	    -10.35770530	     -0.51949183	     -9.88986390	     22.05352091	      0.38490655	    -11.34855612	    -10.41182843	      0.00000000	     34.89601225	      3.07476429	     -3.08722330	     27.18396403	      0.47444968	      5.49756492	     -7.99076005	      0.00000000
